<svg width="100" height="30" viewBox="0 0 100 30" fill="none" xmlns="http://www.w3.org/2000/svg">
<g id="2">
<g id="Powered By">
<g id="Atsuya Logo 1">
<g id="Group">
<g id="Group_2">
<path id="Vector" d="M27.1709 22.7163V28.7763H26.0963V22.7163H24.4844V21.7061H28.7828V22.7163H27.1709Z" fill="#070707"/>
<path id="Vector_2" d="M33.6183 22.7163H30.7973V24.3993H33.5515V25.4096H30.7973V27.766H33.6183V28.7763H29.7227V21.7061H33.6183V22.7163Z" fill="#070707"/>
</g>
<g id="Group_3">
<path id="Vector_3" d="M40.2676 22.1106V23.3897C39.6634 22.8511 38.9916 22.5814 38.3197 22.5814C37.581 22.5814 36.9761 22.8511 36.5064 23.3897C36.0368 23.9284 35.7677 24.5341 35.7677 25.2754C35.7677 26.0168 36.0368 26.6224 36.5064 27.1611C36.9769 27.6997 37.6479 27.9016 38.3197 27.9016C38.7225 27.9016 38.9916 27.8346 39.2598 27.6997C39.3943 27.6327 39.5289 27.5649 39.7303 27.43C39.8648 27.2951 40.0662 27.2281 40.2007 27.0262V28.3054C39.5965 28.6422 38.9247 28.8441 38.2529 28.8441C37.2451 28.8441 36.3719 28.5073 35.6332 27.7668C34.8945 27.0262 34.5586 26.2179 34.5586 25.2084C34.5586 24.333 34.8277 23.5254 35.4318 22.7841C36.1705 21.9087 37.1106 21.5049 38.2529 21.5049C39.0592 21.5719 39.6634 21.7746 40.2676 22.1106Z" fill="#070707"/>
</g>
<g id="Group_4">
<path id="Vector_4" d="M42.8871 24.5351H45.9096V21.7741H46.9842V28.8443H45.9096V25.5446H42.8871V28.8443H41.8125V21.707H42.8871V24.5351Z" fill="#070707"/>
</g>
<g id="Group_5">
<path id="Vector_5" d="M48.6641 28.8443V21.2354L53.8357 26.6218V21.7062H54.9103V29.2472L49.7387 23.8608V28.8435H48.6641V28.8443Z" fill="#070707"/>
</g>
<g id="Group_6">
<path id="Vector_6" d="M56.3203 25.2753C56.3203 24.2651 56.6562 23.3896 57.3949 22.7169C58.1336 21.9764 59.0068 21.6396 60.0146 21.6396C61.0223 21.6396 61.8956 21.9764 62.6343 22.7169C63.373 23.4575 63.7089 24.3329 63.7089 25.3432C63.7089 26.3534 63.373 27.2288 62.6343 27.9694C61.8956 28.7099 61.0223 29.0467 60.0146 29.0467C59.0745 29.0467 58.2681 28.7099 57.5295 28.1042C56.7231 27.2959 56.3203 26.3534 56.3203 25.2761V25.2753ZM57.3949 25.2753C57.3949 26.0837 57.664 26.6894 58.2013 27.228C58.7386 27.7667 59.3428 27.9686 60.0146 27.9686C60.7533 27.9686 61.3583 27.6988 61.8956 27.228C62.4329 26.6894 62.6343 26.0837 62.6343 25.3423C62.6343 24.601 62.3652 23.9283 61.8956 23.4567C61.4251 22.918 60.7541 22.7161 60.0146 22.7161C59.2751 22.7161 58.6709 22.9859 58.1336 23.4567C57.6632 23.8605 57.3949 24.534 57.3949 25.2745V25.2753Z" fill="#070707"/>
</g>
<g id="Group_7">
<path id="Vector_7" d="M66.1254 21.707V27.767H68.2078V28.7773H65.0508V21.707H66.1254Z" fill="#070707"/>
</g>
<g id="Group_8">
<path id="Vector_8" d="M68.6133 25.2753C68.6133 24.2651 68.9492 23.3896 69.6879 22.7169C70.4266 21.9764 71.2998 21.6396 72.3076 21.6396C73.3153 21.6396 74.1885 21.9764 74.9272 22.7169C75.6659 23.4575 76.0018 24.3329 76.0018 25.3432C76.0018 26.3534 75.6659 27.2288 74.9272 27.9694C74.1885 28.7099 73.3153 29.0467 72.3076 29.0467C71.3675 29.0467 70.5611 28.7099 69.8224 28.1042C69.0161 27.2959 68.6133 26.3534 68.6133 25.2761V25.2753ZM69.6879 25.2753C69.6879 26.0837 69.9569 26.6894 70.4943 27.228C71.0316 27.7667 71.6357 27.9686 72.3076 27.9686C73.0463 27.9686 73.6512 27.6988 74.1885 27.228C74.7258 26.6894 74.9272 26.0837 74.9272 25.3423C74.9272 24.601 74.6582 23.9283 74.1885 23.4567C73.7181 22.918 73.0471 22.7161 72.3076 22.7161C71.5681 22.7161 70.9639 22.9859 70.4266 23.4567C69.8893 23.8605 69.6879 24.534 69.6879 25.2745V25.2753Z" fill="#070707"/>
<path id="Vector_9" d="M80.9734 25.1403H83.929V25.3422C83.929 25.8808 83.8622 26.3524 83.7276 26.7562C83.5931 27.16 83.3917 27.4968 83.1235 27.8335C82.4516 28.5741 81.6461 28.9778 80.6383 28.9778C79.6306 28.9778 78.825 28.6411 78.0863 27.9006C77.3476 27.16 77.0117 26.2846 77.0117 25.3422C77.0117 24.3319 77.3476 23.4565 78.0863 22.716C78.825 21.9754 79.6982 21.6387 80.706 21.6387C81.2433 21.6387 81.7806 21.7735 82.2511 21.9754C82.7215 22.1773 83.1911 22.5811 83.5947 23.0527L82.856 23.7933C82.2519 22.9849 81.58 22.6489 80.7068 22.6489C79.9681 22.6489 79.2963 22.9187 78.8258 23.4573C78.2885 23.996 78.0871 24.6016 78.0871 25.343C78.0871 26.1514 78.3562 26.757 78.9604 27.2957C79.4977 27.7673 80.035 28.0362 80.7068 28.0362C81.2441 28.0362 81.7146 27.8343 82.1173 27.4976C82.5201 27.1608 82.7892 26.6892 82.7892 26.2184H81.0427V25.1411H80.9759L80.9734 25.1403Z" fill="#070707"/>
<path id="Vector_10" d="M86.2777 21.707V28.7773H85.2031V21.707H86.2777Z" fill="#070707"/>
<path id="Vector_11" d="M91.9191 22.7163H89.098V24.3993H91.8522V25.4096H89.098V27.766H91.9191V28.7763H88.0234V21.7061H91.9191V22.7163Z" fill="#070707"/>
<path id="Vector_12" d="M97.2927 22.7839L96.4195 23.3225C96.2849 23.0528 96.0836 22.8509 95.949 22.7839C95.8145 22.7169 95.6131 22.649 95.3449 22.649C95.0766 22.649 94.8076 22.7161 94.6062 22.9188C94.4048 23.0536 94.3371 23.3225 94.3371 23.5244C94.3371 23.8612 94.6062 24.1301 95.0758 24.3328L95.8145 24.6025C96.4187 24.8044 96.8223 25.1412 97.0905 25.4779C97.3596 25.8147 97.4933 26.2185 97.4933 26.6901C97.4933 27.3636 97.2919 27.9023 96.8214 28.3061C96.351 28.7098 95.8137 28.9796 95.2095 28.9796C94.6054 28.9796 94.0681 28.7777 93.6645 28.4409C93.2617 28.1042 92.9926 27.5655 92.9258 26.892L94.0004 26.6223C94.0673 27.0261 94.1349 27.2958 94.2695 27.4977C94.4708 27.8344 94.8068 27.9693 95.2095 27.9693C95.5454 27.9693 95.8137 27.8344 96.0159 27.6325C96.2173 27.4306 96.3518 27.0939 96.3518 26.7571C96.3518 26.6223 96.3518 26.4874 96.285 26.3534C96.2181 26.2185 96.2181 26.1515 96.0836 26.0166C96.0167 25.9496 95.8822 25.8147 95.7476 25.7469C95.6131 25.679 95.4786 25.612 95.2772 25.4771L94.6054 25.2074C93.6653 24.8036 93.128 24.1971 93.128 23.3896C93.128 22.8509 93.3294 22.3793 93.7321 22.0426C94.1349 21.7058 94.6722 21.5039 95.2772 21.5039C96.2173 21.5709 96.8891 21.9755 97.2919 22.7831L97.2927 22.7839Z" fill="#070707"/>
</g>
</g>
<g id="Group_9">
<path id="Vector_13" d="M9.40647 0.0742188H0V9.50419H9.40647V0.0742188Z" fill="#070707"/>
<path id="Vector_14" d="M9.40647 21.2433L0 11.8779H9.40647V21.2433Z" fill="#070707"/>
<path id="Vector_15" d="M21.1174 0.0742188H11.7109V9.50419H21.1174V0.0742188Z" fill="#070707"/>
</g>
<g id="Group_10">
<path id="Vector_16" d="M44.6667 16.329L41.1086 17.8093V3.16244H37.4393L36.1641 0L47.3492 0.0670283V3.16163H44.6474L44.6667 16.329Z" fill="#070707"/>
<path id="Vector_17" d="M49.0195 11.9213H56.3799V9.1627H51.1671C49.9588 9.1627 49.2878 8.62486 49.0195 7.6154V6.00107V1.76214C49.0864 1.2243 49.3554 0.752683 49.7574 0.416735C50.1602 0.147815 50.6967 -0.054077 51.1671 0.0129511H60.3174C60.0492 0.752683 59.7809 1.42619 59.6464 1.96404L59.1768 3.24242H53.0248V5.93323H58.2375C58.774 5.93323 59.2444 6.0681 59.6472 6.33702C60.05 6.67377 60.3183 7.14458 60.3851 7.68243V7.95135H60.452V13.6027C60.1837 14.6122 59.5127 15.15 58.3044 15.15L55.2175 15.217H50.2955L49.0203 11.9205L49.0195 11.9213Z" fill="#070707"/>
<path id="Vector_18" d="M70.973 15.1379H61.9766V0H65.2681L65.3349 11.9754H68.9591V0.0678354H69.026V0.00080774H72.3634V11.7743L70.9722 15.1379H70.973Z" fill="#070707"/>
<path id="Vector_19" d="M77.3552 17.5404V7.40055L73.4805 0H77.5743L79.096 3.56541L81.333 0H85.4269L80.9391 7.40055V15.7912L77.356 17.5404H77.3552Z" fill="#070707"/>
<path id="Vector_20" d="M82.536 15.2729L88.0387 0.000976562H92.4677L97.6353 15.2059H89.1125V11.9764H92.4008L90.1863 5.18153L86.5621 15.2059L82.5352 15.2729H82.536Z" fill="#070707"/>
<path id="Vector_21" d="M24.5555 15.2729L30.0582 0.000976562H34.4872L39.6548 15.2059H31.132V11.9764H34.4203L32.2059 5.18153L28.5817 15.2059L24.5547 15.2729H24.5555Z" fill="#070707"/>
</g>
<g id="Group_11">
<path id="Vector_22" d="M95.1953 0.467751H94.4961V0.000976562H96.4181V0.409606H95.7189V2.74509H95.2533V0.467751H95.1953Z" fill="#070707"/>
<path id="Vector_23" d="M96.8275 0H97.2931L97.9924 1.28484L98.6916 0H99.1572V2.80226H98.6916V0.817259L97.9344 2.1021L97.2351 0.817259V2.80226H96.7695L96.8275 0Z" fill="#070707"/>
</g>
</g>
</g>
</g>
</svg>
